<svg version="1.1" xmlns="http://www.w3.org/2000/svg" width="160" height="160" viewBox="0 0 160 160">
<title>browser</title>
<path d="M142.222 8.889h-124.444c-4.909 0-8.889 3.98-8.889 8.889v124.444c0 4.909 3.98 8.889 8.889 8.889h124.444c4.909 0 8.889-3.98 8.889-8.889v-124.444c0-4.909-3.98-8.889-8.889-8.889zM26.667 31.111c0-2.457 1.988-4.444 4.444-4.444h13.333v17.778h-17.778v-13.333zM133.333 128.889c0 2.457-1.988 4.444-4.444 4.444h-97.778c-2.457 0-4.444-1.988-4.444-4.444v-66.667h106.667v66.667zM133.333 44.444h-71.111v-17.778h66.667c2.457 0 4.444 1.988 4.444 4.444v13.333z"></path>
</svg>
