<svg version="1.1" xmlns="http://www.w3.org/2000/svg" width="160" height="160" viewBox="0 0 160 160">
<title>folder</title>
<path d="M53.016 35.556l11.272 11.269c4.193 4.197 9.774 6.508 15.712 6.508h53.333v71.111h-106.667v-88.889h26.35zM58.542 17.778h-40.764c-4.909 0-8.889 3.98-8.889 8.889v106.667c0 4.909 3.98 8.889 8.889 8.889h124.444c4.909 0 8.889-3.98 8.889-8.889v-88.889c0-4.909-3.98-8.889-8.889-8.889h-62.222c-1.181 0-2.309-0.469-3.142-1.302l-15.174-15.174c-0.834-0.833-1.962-1.302-3.143-1.302v0z"></path>
</svg>
