<svg version="1.1" xmlns="http://www.w3.org/2000/svg" width="160" height="160" viewBox="0 0 160 160">
<title>image</title>
<path d="M151.11 8.889h-142.22c-4.908 0-8.887 3.979-8.887 8.887v124.446c0 4.908 3.979 8.889 8.887 8.889h142.22c4.908 0 8.887-3.981 8.887-8.889v-124.446c0-4.908-3.979-8.887-8.887-8.887zM142.218 128.889c0 2.454-1.987 4.444-4.443 4.444h-71.978l49.792-49.794 26.629 26.628v18.722zM142.218 85.383l-19.291-19.289c-0.308-0.455-0.662-0.888-1.065-1.291-1.746-1.746-4.044-2.605-6.333-2.579-2.276-0.026-4.562 0.828-6.299 2.566-0.359 0.359-0.678 0.743-0.962 1.144l-67.397 67.399h-18.647c-2.456 0-4.443-1.99-4.443-4.444v-97.778c0-2.456 1.987-4.446 4.443-4.446h115.55c2.456 0 4.443 1.989 4.443 4.446v54.272z"></path>
<path d="M53.334 44.444c-9.82 0-17.779 7.958-17.779 17.779 0 9.818 7.958 17.776 17.779 17.776 9.816 0 17.779-7.958 17.779-17.776 0-9.82-7.963-17.779-17.779-17.779z"></path>
</svg>
