<svg version="1.1" xmlns="http://www.w3.org/2000/svg" width="160" height="160" viewBox="0 0 160 160">
<title>root</title>
<path d="M156.237 59.566l-69.488-49.050c-1.497-1.059-3.29-1.627-5.126-1.627h-3.247c-1.836 0-3.628 0.569-5.126 1.627l-69.488 49.050c-2.361 1.662-3.763 4.371-3.763 7.261v75.395c0 4.909 3.98 8.889 8.889 8.889h142.222c4.909 0 8.889-3.98 8.889-8.889v-75.395c0-2.891-1.402-5.599-3.763-7.261zM142.222 128.889c0 2.457-1.988 4.444-4.444 4.444h-66.667v-48.889c0-2.457-1.988-4.444-4.444-4.444h-26.667c-2.457 0-4.444 1.988-4.444 4.444v48.889h-13.333c-2.457 0-4.444-1.988-4.444-4.444v-55.152c0-1.445 0.703-2.799 1.879-3.633l60.343-42.591 60.339 42.591c1.181 0.833 1.884 2.188 1.884 3.633v55.152z"></path>
<path d="M120 80h-26.667c-2.457 0-4.444 1.988-4.444 4.444v8.889c0 2.457 1.988 4.444 4.444 4.444h26.667c2.457 0 4.444-1.988 4.444-4.444v-8.889c0-2.457-1.988-4.444-4.444-4.444z"></path>
</svg>
