<svg version="1.1" xmlns="http://www.w3.org/2000/svg" width="160" height="160" viewBox="0 0 160 160">
<title>video</title>
<path d="M151.111 17.778h-142.222c-4.909 0-8.889 3.98-8.889 8.889v106.667c0 4.909 3.98 8.889 8.889 8.889h142.222c4.909 0 8.889-3.98 8.889-8.889v-106.667c0-4.909-3.98-8.889-8.889-8.889zM17.778 35.556h17.778v17.778h-17.778v-17.778zM17.778 71.111h17.778v17.778h-17.778v-17.778zM17.778 124.444v-17.778h17.778v17.778h-17.778zM53.333 124.444v-88.889h53.333v88.889h-53.333zM142.222 124.444h-17.778v-17.778h17.778v17.778zM142.222 88.889h-17.778v-17.778h17.778v17.778zM142.222 53.333h-17.778v-17.778h17.778v17.778z"></path>
</svg>
